<?xml version="1.0" encoding="iso-8859-1"?>
<!-- Generator: Adobe Illustrator 18.0.0, SVG Export Plug-In . SVG Version: 6.00 Build 0)  -->
<!DOCTYPE svg PUBLIC "-//W3C//DTD SVG 1.1//EN" "http://www.w3.org/Graphics/SVG/1.1/DTD/svg11.dtd">
<svg version="1.1" id="Capa_1" xmlns="http://www.w3.org/2000/svg" xmlns:xlink="http://www.w3.org/1999/xlink" x="0px" y="0px"
	 viewBox="0 0 489.275 489.275" style="enable-background:new 0 0 489.275 489.275;" xml:space="preserve" width="100%" height="100%">
  <g>
	  <g>
		  <path fill="#EEEEEE" d="M383.822,89.568c7.419,6.317,14.191,13.072,20.315,20.215V9.786c0-5.404-4.379-9.786-9.785-9.786h-75.693
			  c-5.402,0-9.783,4.382-9.783,9.786v39.658C336.719,57.657,362.287,71.23,383.822,89.568z"/>
		  <path fill="#EEEEEE" d="M66.138,212.275V454.86c0,19.008,18.094,34.415,40.415,34.415h56.085c-24.262,0-44-19.738-44-44v-188
			  c0-33.656,13.106-65.297,36.904-89.095c23.798-23.798,55.439-36.905,89.094-36.905c33.656,0,65.298,13.106,89.097,36.904
			  c23.799,23.798,36.905,55.44,36.905,89.096v188c0,24.262-19.738,44-44,44h56.084c22.324,0,40.416-15.407,40.416-34.415V212.275
			  c0-83.947-79.918-152-178.502-152C146.054,60.275,66.138,128.329,66.138,212.275z"/>
		  <path fill="#EEEEEE" d="M105.452,89.568c21.537-18.339,47.106-31.913,74.95-40.126V9.786c0-5.404-4.382-9.786-9.786-9.786H94.923
			  c-5.403,0-9.785,4.382-9.785,9.786v99.997C91.261,102.639,98.033,95.885,105.452,89.568z"/>
	  </g>
	  <path fill="#EEEEEE" d="M244.636,151.275c-58.541,0-105.998,47.458-105.998,106v188c0,13.255,10.744,24,24,24h164c13.256,0,24-10.745,24-24v-188
		  C350.638,198.733,303.179,151.275,244.636,151.275z M303.638,302.275h-118c-5.523,0-10-4.477-10-10c0-5.523,4.477-10,10-10h118
		  c5.522,0,10,4.477,10,10C313.638,297.798,309.16,302.275,303.638,302.275z M303.638,253.275h-118c-5.523,0-10-4.477-10-10
		  c0-5.523,4.477-10,10-10h118c5.522,0,10,4.477,10,10C313.638,248.798,309.16,253.275,303.638,253.275z"/>
  </g>
</svg>
